<?xml version="1.0" standalone="no"?>
<!DOCTYPE svg PUBLIC "-//W3C//DTD SVG 20010904//EN"
 "http://www.w3.org/TR/2001/REC-SVG-20010904/DTD/svg10.dtd">
<svg version="1.0" xmlns="http://www.w3.org/2000/svg"
 width="754.000000pt" height="433.000000pt" viewBox="0 0 754.000000 433.000000"
 preserveAspectRatio="xMidYMid meet">
<metadata>
Created by potrace 1.16, written by Peter Selinger 2001-2019
</metadata>
<g transform="translate(0.000000,433.000000) scale(0.100000,-0.100000)"
fill="#000000" stroke="none">
<path d="M1231 3928 c-5 -15 -2 -40 10 -74 46 -130 49 -320 9 -544 -71 -394
-274 -918 -468 -1210 -73 -110 -219 -256 -294 -295 l-57 -30 42 -26 c82 -51
151 -139 229 -294 40 -80 75 -145 78 -145 3 0 20 26 39 56 75 124 187 231 304
291 107 54 308 83 569 83 l148 0 0 -238 0 -239 -54 -12 c-87 -19 -192 -75
-257 -137 -105 -101 -144 -195 -137 -333 7 -138 65 -239 151 -262 74 -20 94
17 27 51 -50 25 -70 64 -70 132 1 143 111 227 283 216 95 -6 157 -39 241 -128
l62 -67 39 76 c29 57 60 98 124 161 95 94 174 142 267 163 59 13 59 13 62 53
l3 40 -76 11 c-111 16 -164 46 -197 113 -27 52 -28 58 -28 226 l0 172 77 7
c59 6 88 4 130 -9 65 -21 84 -51 91 -148 l5 -68 43 0 44 0 0 275 0 275 -45 0
-45 0 0 -55 c0 -30 -7 -72 -15 -93 -24 -59 -55 -72 -179 -72 l-107 0 3 373 c3
347 4 375 23 412 27 56 91 114 168 155 66 35 67 36 67 76 0 40 -2 43 -42 59
-117 46 -268 181 -343 305 -22 35 -51 100 -66 144 l-26 79 -7 -39 c-35 -182
-263 -453 -418 -494 -37 -10 -38 -12 -38 -54 0 -42 2 -45 47 -72 73 -42 138
-109 164 -167 24 -51 24 -58 27 -414 l3 -363 -163 0 c-183 0 -365 13 -429 30
-54 15 -96 56 -105 106 -32 170 154 715 351 1029 67 107 139 183 218 232 l58
35 -66 60 c-84 77 -131 139 -240 318 -92 151 -128 203 -179 258 -35 38 -44 39
-55 10z"/>
<path d="M5454 3935 c-7 -18 -2 -50 22 -130 23 -75 25 -308 5 -435 -62 -396
-276 -963 -476 -1265 -75 -113 -220 -261 -297 -300 l-57 -30 42 -26 c49 -30
118 -100 156 -157 14 -22 53 -95 86 -161 32 -67 62 -121 65 -121 4 0 17 18 29
41 68 120 198 247 314 306 107 54 308 83 569 83 l148 0 0 -238 0 -239 -54 -12
c-130 -29 -280 -133 -340 -235 -84 -144 -70 -368 30 -456 44 -38 107 -58 129
-40 19 16 12 26 -36 51 -48 24 -69 66 -69 136 1 131 102 213 265 213 98 0 170
-36 257 -129 l64 -68 39 76 c29 56 62 99 125 161 94 94 172 142 266 163 59 13
59 13 62 53 l3 40 -76 11 c-111 16 -164 46 -197 113 -27 52 -28 58 -28 226 l0
172 77 7 c59 6 88 4 130 -9 65 -21 84 -51 91 -148 l5 -68 43 0 44 0 0 275 0
275 -45 0 -45 0 0 -55 c0 -71 -24 -132 -61 -150 -19 -11 -61 -15 -134 -15
l-106 0 3 373 3 372 30 54 c32 58 82 101 169 147 54 28 56 30 56 70 0 40 -2
43 -42 59 -117 46 -268 182 -345 308 -20 34 -49 97 -64 141 l-26 79 -7 -39
c-35 -182 -263 -453 -418 -494 -37 -10 -38 -12 -38 -54 0 -42 2 -45 47 -72 73
-42 138 -109 164 -167 24 -51 24 -58 27 -416 l3 -364 -243 6 c-348 9 -417 26
-446 112 -42 124 63 503 237 855 117 236 208 356 323 426 l58 36 -73 68 c-80
75 -135 150 -247 335 -75 124 -112 177 -164 233 -33 36 -44 39 -52 17z"/>
<path d="M3716 3403 c-49 -93 -140 -199 -222 -261 -147 -111 -317 -173 -547
-200 l-138 -16 3 -40 c3 -36 6 -41 36 -48 47 -12 104 -74 127 -138 19 -52 20
-87 23 -604 2 -458 0 -562 -12 -622 -28 -132 -80 -209 -161 -237 -37 -13 -40
-17 -43 -55 l-3 -42 73 0 c258 -1 580 -171 708 -374 19 -30 37 -55 40 -55 3 0
19 23 35 51 42 73 137 166 220 214 89 53 183 86 315 113 88 17 334 51 378 51
9 0 12 13 10 42 -3 39 -6 43 -37 52 -77 22 -139 122 -161 258 -6 37 -10 272
-10 565 0 533 5 605 49 691 26 51 70 88 115 96 34 7 36 9 36 45 l0 39 -67 12
c-284 53 -556 233 -686 454 l-45 77 -36 -68z m-101 -596 c140 -121 194 -190
234 -301 l26 -71 3 -642 c1 -389 -1 -643 -7 -643 -5 0 -44 25 -87 56 -157 111
-257 231 -294 351 -19 62 -20 92 -20 715 0 413 4 648 10 646 5 -1 66 -52 135
-111z"/>
</g>
</svg>
